PathFileType  4	(X/Y/Z) C:\Users\antoi\Documents\MyRepositories\mobilecap\ResultsAnalysis
DataRate	CameraRate	NumFrames	NumMarkers	Units	OrigDataRate	OrigDataStartFrame	OrigNumFrames
100.0	100.0	6	51	mm	100.0	137	156
Frame#	Time	r_knee			r_shank_antsup			r_ankle			r_calc			r_5meta			r_toe			L_knee			L_shank_antsup			L_ankle			L_calc			L_5meta			L_toe			r_sh2			r_sh3			r_sh4			L_sh2			L_sh3			r_thigh1			r_thigh2			r_thigh3			r_thigh4			r_thigh5			L_thigh1			L_thigh2			L_thigh3			L_thigh4			r.ASIS			r.PSIS			L.ASIS			L.PSIS			C7			R_Shoulder			L_Shoulder			R_Sternum			L_Sternum			R_humerus			R_elbow_med			R_elbow_lat			R_forearm			R_wrist_radius			R_wrist_ulna			L_humerus			L_elbow_med			L_elbow_lat			L_forearm			L_wrist_radius			L_wrist_ulna			R_HJC			L_HJC			R_HJC_reg			L_HJC_reg			
		X1	Y1	Z1	X2	Y2	Z2	X3	Y3	Z3	X4	Y4	Z4	X5	Y5	Z5	X6	Y6	Z6	X7	Y7	Z7	X8	Y8	Z8	X9	Y9	Z9	X10	Y10	Z10	X11	Y11	Z11	X12	Y12	Z12	X13	Y13	Z13	X14	Y14	Z14	X15	Y15	Z15	X16	Y16	Z16	X17	Y17	Z17	X18	Y18	Z18	X19	Y19	Z19	X20	Y20	Z20	X21	Y21	Z21	X22	Y22	Z22	X23	Y23	Z23	X24	Y24	Z24	X25	Y25	Z25	X26	Y26	Z26	X27	Y27	Z27	X28	Y28	Z28	X29	Y29	Z29	X30	Y30	Z30	X31	Y31	Z31	X32	Y32	Z32	X33	Y33	Z33	X34	Y34	Z34	X35	Y35	Z35	X36	Y36	Z36	X37	Y37	Z37	X38	Y38	Z38	X39	Y39	Z39	X40	Y40	Z40	X41	Y41	Z41	X42	Y42	Z42	X43	Y43	Z43	X44	Y44	Z44	X45	Y45	Z45	X46	Y46	Z46	X47	Y47	Z47	X48	Y48	Z48	X49	Y49	Z49	X50	Y50	Z50	X51	Y51	Z51	

137	1.36000000	1377.16819	460.56576	-87.84694	1441.42985	362.10286	-97.05200	1447.02562	85.74738	-128.85090	1413.11948	53.30567	-188.67880	1566.14420	43.02414	-92.59020	1604.86103	71.16219	-129.09992	1122.66395	455.81588	-401.86497	1101.15416	345.11938	-355.01596	886.96239	134.09578	-377.16880	821.34024	120.23444	-333.12424	973.28689	39.67114	-379.67151	1007.95749	43.39579	-322.09775	1461.66063	252.24144	-113.79319	1380.04719	341.89769	-55.69130	1385.70406	232.63702	-84.01969	1073.20774	384.20189	-427.12999	1004.81683	286.57439	-436.38367	1375.50695	775.53982	-96.70669	1412.16173	670.42850	-95.89863	1375.26758	633.44649	-52.82629	1279.16016	741.87574	-48.91742	1318.87445	632.31973	-47.34873	1295.57721	707.77444	-417.47382	1258.89608	576.65749	-406.70305	1196.62610	738.57125	-458.78210	1154.57030	604.60568	-437.15453	1360.82964	911.25375	-137.96462	1178.20474	953.29623	-206.61972	1368.41178	884.62847	-382.82499	1182.63750	949.46860	-323.74302	1264.41780	1394.06211	-194.07495	1284.58921	1321.26963	-47.07454	1354.46991	1386.57296	-338.65687	1374.02445	1312.77491	-166.07010	1384.44292	1319.09760	-208.45692	1259.00319	1188.97837	1.48807	1155.79512	1023.59337	-84.65272	1155.70384	1023.46389	-10.24016	1170.59191	898.28283	14.71859	1182.11409	793.83979	18.19310	1145.10149	794.43470	23.37654	1384.85837	1252.48851	-417.43381	1320.19563	1053.84952	-422.82530	1356.85179	1075.54337	-482.21363	1436.40560	1008.48963	-478.19946	1510.09277	904.66447	-446.46681	1494.80485	889.97208	-472.07035	1268.52277	840.69424	-156.79746	1274.91019	820.32614	-344.96148	1287.17017	831.30031	-172.41316	1293.31659	825.99198	-334.85400	
138	1.37000000	1383.74441	461.56719	-86.84834	1447.04544	362.04526	-96.28444	1448.29657	85.41146	-129.25968	1413.85964	53.82514	-188.72111	1566.98224	41.35361	-92.52503	1606.27177	68.39737	-129.24502	1137.05020	454.78651	-399.30135	1112.96203	343.98934	-352.89764	892.82551	139.67668	-376.81553	827.09519	128.29619	-333.17856	975.32361	40.92406	-379.56329	1009.59821	43.41458	-321.76469	1465.71500	251.93647	-113.30702	1385.42076	342.51448	-54.84467	1389.51451	233.22655	-83.37605	1086.47199	384.24540	-424.97144	1015.45630	288.66903	-434.86938	1386.77276	777.05561	-94.49799	1422.12617	671.45818	-93.52465	1384.21038	634.79686	-51.12775	1289.42030	744.30779	-47.87937	1327.90750	634.43500	-46.36254	1308.48312	707.40693	-415.45633	1272.63633	576.04313	-404.36196	1209.40562	737.45549	-456.85593	1168.04283	603.31286	-434.44033	1373.20687	913.61482	-137.35644	1190.69573	955.13927	-207.23530	1381.46599	884.71361	-381.73235	1195.73285	950.19369	-324.41106	1274.54251	1394.14374	-189.20395	1294.57825	1319.87745	-42.77477	1365.39316	1388.54357	-333.58552	1384.36908	1313.05811	-161.37312	1395.23398	1320.09961	-203.50554	1270.38221	1186.94681	4.60289	1169.49077	1020.85964	-82.91839	1168.89634	1020.47833	-8.32449	1185.00295	895.33485	16.16824	1197.89297	791.20626	19.46084	1160.14468	790.93101	23.99105	1395.32839	1254.66962	-413.48303	1329.20914	1056.51970	-420.38437	1366.15419	1078.39158	-479.58491	1444.92176	1010.24766	-475.44070	1516.82641	905.00593	-444.21166	1501.69715	890.84584	-470.00894	1280.76383	842.97220	-155.90310	1287.93700	820.78550	-343.84015	1299.42957	833.44585	-171.39990	1306.40019	826.59947	-333.61697	
139	1.38000000	1390.14561	462.60516	-85.80637	1452.66918	362.15866	-95.71804	1449.36090	85.13312	-129.66412	1414.39266	54.12091	-188.60658	1567.64389	40.01979	-92.42454	1607.36905	66.09929	-129.37537	1152.38194	453.50100	-396.72196	1125.73720	342.67618	-350.83188	899.37576	145.80271	-376.40508	833.77506	137.09951	-333.27464	977.64860	42.53115	-379.44504	1011.51753	43.68642	-321.46655	1469.67112	251.79227	-112.98072	1391.00675	343.36835	-53.87576	1393.36431	234.03183	-82.48102	1100.72305	384.11982	-422.85561	1027.00163	290.78983	-433.39804	1397.89404	778.39588	-92.21677	1431.84276	672.29301	-90.98392	1392.76899	636.02232	-49.38260	1299.48990	746.70314	-46.89475	1336.57424	636.47189	-45.37699	1321.43746	707.32636	-413.33948	1286.90737	575.59153	-402.02832	1222.14646	736.33930	-454.78763	1181.96577	601.84987	-431.62730	1385.38229	915.96227	-136.46795	1203.03027	957.04349	-207.69758	1394.33889	885.21396	-380.38574	1208.65173	951.22588	-324.93440	1284.59032	1394.46100	-184.55927	1304.42672	1318.85053	-38.70527	1376.09200	1390.69682	-328.72061	1394.65653	1313.67649	-156.86479	1405.95765	1321.39867	-198.77318	1281.61355	1185.35676	7.62525	1183.27864	1018.41609	-81.26367	1182.11582	1017.87640	-6.46779	1199.56149	892.79127	17.64214	1213.78659	789.02369	20.87632	1175.42591	787.85724	24.72705	1405.51016	1257.08910	-409.89079	1337.97369	1059.44189	-417.92386	1375.24092	1081.40258	-477.00414	1453.21107	1012.14470	-472.72447	1523.18470	905.39779	-442.04354	1508.27949	891.82847	-468.09457	1292.76328	845.27456	-154.95305	1300.82652	821.58211	-342.67396	1311.53223	835.58987	-170.25619	1319.29615	827.55137	-332.24446	
140	1.39000000	1396.34363	463.66268	-84.74136	1458.14156	362.33990	-95.20108	1450.29013	84.99489	-129.96077	1414.80033	54.17754	-188.34838	1568.18641	38.89234	-92.27841	1608.22595	64.15049	-129.44574	1168.64512	451.94018	-394.15272	1139.45961	341.18277	-348.84515	906.70311	152.50753	-375.94324	841.46555	146.66870	-333.34822	980.27827	44.62187	-379.29413	1013.77335	44.29733	-321.21164	1473.45502	251.73520	-112.68073	1396.53026	344.33227	-52.85356	1397.09908	234.95103	-81.47780	1115.92892	383.83831	-420.78982	1039.43873	292.92708	-431.96574	1408.86510	779.53500	-89.99716	1441.27479	672.89914	-88.43028	1400.99719	637.12019	-47.63617	1309.48147	749.09986	-45.91024	1344.95181	638.42868	-44.35910	1334.40101	707.49491	-411.12259	1301.67903	575.27170	-399.71600	1234.79397	735.16476	-452.54563	1196.31298	600.18212	-428.72852	1397.34689	918.27241	-135.31829	1215.18648	958.98616	-207.94724	1406.94257	886.07613	-378.82779	1221.33303	952.50640	-325.25539	1294.60224	1395.01317	-180.15035	1314.17747	1318.18999	-34.87967	1386.59297	1392.97457	-324.06969	1404.91091	1314.59391	-152.57489	1416.60097	1322.93866	-194.29972	1292.69808	1184.21546	10.55801	1197.10759	1016.31109	-79.66240	1195.33466	1015.68537	-4.68004	1214.21595	890.68062	19.13702	1229.66492	787.29626	22.47210	1190.99183	785.28199	25.62697	1415.43661	1259.71528	-406.65201	1346.46419	1062.60360	-415.46778	1384.06200	1084.55324	-474.50571	1461.23644	1014.17169	-470.10164	1529.21621	905.89692	-439.96311	1514.56899	892.94511	-466.31936	1304.52142	847.57169	-153.91740	1313.50105	822.66220	-341.44036	1323.45029	837.72592	-168.95559	1331.92381	828.78883	-330.72968	
141	1.40000000	1402.31827	464.70950	-83.68188	1463.30516	362.49027	-94.60094	1451.12515	85.08568	-130.06139	1415.13545	54.01576	-187.98773	1568.64636	37.89609	-92.08898	1608.91066	62.46544	-129.44111	1185.80435	450.12005	-391.63259	1154.09951	339.54359	-346.94793	914.90704	159.79445	-375.44062	850.24536	156.99642	-333.33135	983.24488	47.33324	-379.09353	1016.43245	45.34317	-321.00630	1476.98295	251.69137	-112.29769	1401.71821	345.28394	-51.85387	1400.55858	235.88673	-80.51632	1132.05314	383.42282	-418.77910	1052.74810	295.06950	-430.55762	1419.65737	780.48270	-87.91576	1450.41062	673.29459	-86.00835	1408.97862	638.09836	-45.93541	1319.46168	751.50323	-44.86962	1353.13368	640.29567	-43.28540	1347.35867	707.86975	-408.81420	1316.91700	575.05961	-397.45028	1247.32612	733.88591	-450.09724	1211.05677	598.30012	-425.76919	1409.10626	920.51868	-133.94620	1227.15930	960.94454	-207.93540	1419.20750	887.22790	-377.10454	1233.72446	953.96621	-325.32074	1304.61620	1395.78089	-175.98184	1323.88765	1317.88245	-31.30458	1396.92320	1395.32024	-319.64299	1415.15097	1315.75398	-148.53794	1427.15385	1324.64829	-190.12474	1303.65619	1183.51323	13.40045	1210.91735	1014.59293	-78.08189	1208.53304	1013.91829	-2.96119	1228.92850	889.02181	20.65409	1245.45279	786.01864	24.26522	1206.84534	783.24367	26.70377	1425.14958	1262.50111	-403.73316	1354.67529	1065.97634	-413.05596	1392.58179	1087.81823	-472.12853	1468.96241	1016.31077	-467.62780	1534.96554	906.54714	-437.97954	1520.57464	894.20399	-464.66987	1316.05466	849.83348	-152.77007	1325.89488	823.95917	-340.11924	1335.17600	839.85153	-167.47914	1344.21158	830.24354	-329.06238	
142	1.41000000	1408.05926	465.71252	-82.65532	1468.06162	362.54651	-93.84126	1451.87778	85.43983	-129.94001	1415.40993	53.70285	-187.58553	1569.03709	37.01537	-91.87312	1609.47601	61.00446	-129.37824	1203.80549	448.08213	-389.20164	1169.63083	337.82471	-345.12858	924.07794	167.62348	-374.89574	860.17674	168.01892	-333.15933	986.61281	50.78649	-378.83872	1019.57857	46.91735	-320.85807	1480.19553	251.60959	-111.77655	1406.38784	346.14075	-50.93347	1403.63399	236.77285	-79.70566	1149.05535	382.89036	-416.82489	1066.89415	297.20110	-429.14371	1430.23375	781.27593	-86.00198	1459.26952	673.53606	-83.83622	1416.81284	638.97213	-44.33236	1329.43161	753.87639	-43.73468	1361.20382	642.05270	-42.15197	1360.30949	708.40224	-406.43484	1332.58392	574.93780	-395.26937	1259.75240	732.47543	-447.42767	1226.17127	596.21425	-422.78865	1420.67042	922.66303	-132.40757	1238.94148	962.89373	-207.62504	1431.08701	888.58676	-375.26429	1245.78077	955.53151	-325.08853	1314.66005	1396.72570	-172.05568	1333.62026	1317.90100	-27.97920	1407.10846	1397.68845	-315.45842	1425.38543	1317.08842	-144.78996	1437.61435	1326.45374	-186.28334	1314.52450	1183.22092	16.14733	1224.64786	1013.29694	-76.49342	1221.69607	1012.57130	-1.29959	1243.67979	887.82052	22.20023	1261.16363	785.17988	26.23680	1222.95005	781.74165	27.93964	1434.68489	1265.38722	-401.08924	1362.61461	1069.51423	-410.74532	1400.78635	1091.16753	-469.91427	1476.36821	1018.53630	-465.35515	1540.46455	907.36698	-436.11207	1526.29962	895.59421	-463.13771	1327.38207	852.02277	-151.49684	1337.95291	825.40062	-338.70121	1346.70513	841.96161	-165.82904	1356.10358	831.84204	-327.24192	
